<svg xmlns="http://www.w3.org/2000/svg" width="33" height="38" fill="none" viewBox="0 0 33 38"><g clip-path="url(#a)"><path fill="#FDC305" d="M6.0117 20.9349v-2.2835a139.135 139.135 0 0 1 19.9763-1.3438c0 .6063 0 1.2226-.0594 1.8389a24.908 24.908 0 0 1 5.9423-1.8389c-1.3048-3.4433-3.6825-6.354-6.7672-8.2841-3.0848-1.9302-6.7057-2.773-10.3058-2.3987-3.6001.3743-6.98 1.9449-9.6196 4.4702-2.6397 2.5252-4.393 5.8653-4.9901 9.5064l5.8235.3335ZM26.9784 24.4813c-1.1489 1.2932-1.3767 1.2124-1.3767 3.4857v9.2752c2.2706-1.5297 4.1345-3.6091 5.4254-6.0527 1.291-2.4435 1.9688-5.1752 1.9729-7.951a17.8219 17.8219 0 0 0-.3169-3.1321 32.8559 32.8559 0 0 0-5.7047 4.3749ZM6.299 25.9867s-3.7537-1.4549-5.1402-1.849A8.3295 8.3295 0 0 0 0 23.8548c.1074 2.9159.9563 5.7532 2.4635 8.2331 1.5072 2.48 3.6208 4.5174 6.1331 5.9121L6.299 25.9867Z"/><path fill="#F06351" d="M26.0375 17.2975A92.5196 92.5196 0 0 0 24.651.6568s-.1387-1.3034-.8815-.2425A14.583 14.583 0 0 0 22.581 4.395a68.295 68.295 0 0 0-12.6473.3435C9.1513 2.0208 7.7747.7578 7.111 1.0104c-.6635.2526-.713 3.3443-.713 3.3443L6.071 18.601a139.0937 139.0937 0 0 1 19.9664-1.3034Z"/><path fill="#000" d="M12.2908 14.1452c0-.091.9904.687 1.3965.9295.406.2425.6041.4244.6041.5961 0 .1718-.2674.3436-.6239.3436-.3566 0-.9013-.1213-.9904-.2728h1.2182a8.3398 8.3398 0 0 1-1.6045-1.5964ZM19.699 14.2563l-1.0796 1.3438c0 .0606-.1683.3536.1783.3031a7.1615 7.1615 0 0 0 1.2083-.293c.1089 0 .0693-.192-.1089-.1718-.1783.0203-.6834.0506-.9904.1112l.8319-1.2731s.0693-.1313-.0396-.0202ZM16.5891 20.4095c.4591-.2064.8386-.5615 1.0796-1.0104.2773-.6567 0-.9194-.4358-1.0104a2.367 2.367 0 0 0-1.7233.3436c-.3863.3637-.3367.7274-.0495 1.0103a5.262 5.262 0 0 0 1.129.6669Z"/><path fill="#F06351" d="M16.193 21.6724a1.936 1.936 0 0 1-.4556.6062 1.6931 1.6931 0 0 1-.9904.384 2.0995 2.0995 0 0 1-1.4559-.4345 2.2887 2.2887 0 0 1-.5249-.4445 1.059 1.059 0 0 0-.3565-.2627s.7428 4.1425 2.5453 4.7992c1.8025.6568 2.1194-.7578 2.1789-1.1417.0595-1.1466-.2237-2.2847-.8122-3.2635-.0198-.3132-.0297-.1111-.1287-.2425Z"/><path fill="#000" d="M14.5687 22.8242a3.3641 3.3641 0 0 1-1.2992-.4739 3.4365 3.4365 0 0 1-1.0084-.9608.1417.1417 0 0 1-.0416-.101.1422.1422 0 0 1 .0416-.1011.1361.1361 0 0 1 .1528-.0314.1392.1392 0 0 1 .0453.0314c.4999.7015 1.2508 1.1734 2.0897 1.3135.3285-.0252.6463-.13.9271-.3057a2.0925 2.0925 0 0 0 .6873-.7046l.1386-.192.0991.2122s.3664.7678.9904.8083c.6239.0404 1.0399-.4143 1.5945-1.2933a.1377.1377 0 0 1 .099-.0425.137.137 0 0 1 .0991.0425.1517.1517 0 0 1 .0642.091.1545.1545 0 0 1-.0147.1111c-.6339 1.0103-1.2578 1.4549-1.862 1.4145a1.5184 1.5184 0 0 1-.6411-.2539 1.5547 1.5547 0 0 1-.4681-.514 2.255 2.255 0 0 1-.7411.671 2.2052 2.2052 0 0 1-.9525.2787Z"/><path fill="#F06351" d="M25.988 19.1162a58.6993 58.6993 0 0 0-5.0213 5.2438 31.5787 31.5787 0 0 1-5.2392 4.9407c-.2179-.5355-1.6044-1.5256-1.6044-1.5256s-3.1-2.1622-5.1303-3.8597a34.1005 34.1005 0 0 1-3.1-3.0311l-1.9807-.1111c2.8624 4.2492 7.0518 7.3833 11.8847 8.8913.8518-.1415 3.2386-1.8793 5.0213-3.2939a58.1456 58.1456 0 0 0 5.883-5.951 6.2462 6.2462 0 0 0 1.129-2.0208c-1.0894.3941-1.8421.7174-1.8421.7174Z"/></g><defs><clipPath id="a"><path fill="#fff" d="M0 0h33v38H0z"/></clipPath></defs></svg>